<svg xmlns="http://www.w3.org/2000/svg" width="375" viewBox="0 0 375 375" height="375" version="1.0"><g fill="#1C2120"><g><g><path d="M 13.515625 -4.875 L 5.953125 -4.875 L 3.96875 0 L 0.6875 0 L 9.859375 -21.609375 L 10.0625 -21.609375 L 19.234375 0 L 15.421875 0 Z M 12.390625 -7.71875 L 9.796875 -14.28125 L 7.125 -7.71875 Z M 12.390625 -7.71875" transform="translate(91.41 194.625)"/></g></g></g><g fill="#1C2120"><g><g><path d="M 12.6875 -10.828125 C 13.84375 -10.359375 14.75 -9.703125 15.40625 -8.859375 C 16.0625 -8.023438 16.390625 -7.054688 16.390625 -5.953125 C 16.390625 -3.941406 15.707031 -2.445312 14.34375 -1.46875 C 12.988281 -0.488281 11.3125 0 9.3125 0 L 2.84375 0 L 2.84375 -20.75 L 8.515625 -20.75 C 10.679688 -20.75 12.363281 -20.304688 13.5625 -19.421875 C 14.757812 -18.535156 15.359375 -17.238281 15.359375 -15.53125 C 15.359375 -14.445312 15.125 -13.507812 14.65625 -12.71875 C 14.195312 -11.9375 13.539062 -11.304688 12.6875 -10.828125 Z M 6.1875 -11.90625 L 9.0625 -11.90625 C 10.007812 -11.90625 10.722656 -12.179688 11.203125 -12.734375 C 11.691406 -13.285156 11.9375 -13.976562 11.9375 -14.8125 C 11.9375 -15.726562 11.644531 -16.414062 11.0625 -16.875 C 10.488281 -17.332031 9.6875 -17.5625 8.65625 -17.5625 L 6.1875 -17.5625 Z M 9.171875 -3.078125 C 10.296875 -3.078125 11.207031 -3.316406 11.90625 -3.796875 C 12.613281 -4.285156 12.96875 -4.992188 12.96875 -5.921875 C 12.96875 -6.910156 12.582031 -7.625 11.8125 -8.0625 C 11.039062 -8.5 10.085938 -8.71875 8.953125 -8.71875 L 6.1875 -8.71875 L 6.1875 -3.078125 Z M 9.171875 -3.078125" transform="translate(115.692 194.625)"/></g></g></g><g fill="#1C2120"><g><g><path d="M 2.84375 -20.75 L 8.75 -20.75 C 11.351562 -20.75 13.503906 -20.234375 15.203125 -19.203125 C 16.898438 -18.179688 18.140625 -16.863281 18.921875 -15.25 C 19.703125 -13.632812 20.09375 -11.914062 20.09375 -10.09375 C 20.09375 -8.070312 19.617188 -6.296875 18.671875 -4.765625 C 17.734375 -3.242188 16.476562 -2.066406 14.90625 -1.234375 C 13.332031 -0.410156 11.613281 0 9.75 0 L 2.84375 0 Z M 9.15625 -3.1875 C 10.632812 -3.1875 11.9375 -3.460938 13.0625 -4.015625 C 14.195312 -4.566406 15.082031 -5.378906 15.71875 -6.453125 C 16.351562 -7.523438 16.671875 -8.8125 16.671875 -10.3125 C 16.671875 -11.945312 16.320312 -13.3125 15.625 -14.40625 C 14.9375 -15.5 14.054688 -16.300781 12.984375 -16.8125 C 11.910156 -17.320312 10.800781 -17.578125 9.65625 -17.578125 L 6.1875 -17.578125 L 6.1875 -3.1875 Z M 9.15625 -3.1875" transform="translate(138.008 194.625)"/></g></g></g><g fill="#1C2120"><g><g><path d="M 6.1875 -20.75 L 6.1875 0 L 2.84375 0 L 2.84375 -20.75 Z M 6.1875 -20.75" transform="translate(164.057 194.625)"/></g></g></g><g fill="#1C2120"><g><g><path d="M 21.171875 -20.75 L 21.171875 0.734375 L 21.09375 0.734375 L 6.125 -13.765625 L 6.21875 0 L 2.84375 0 L 2.84375 -21.453125 L 3.015625 -21.453125 L 17.921875 -6.78125 L 17.875 -20.75 Z M 21.171875 -20.75" transform="translate(177.452 194.625)"/></g></g></g><g fill="#1C2120"><g><g><path d="M 13.515625 -4.875 L 5.953125 -4.875 L 3.96875 0 L 0.6875 0 L 9.859375 -21.609375 L 10.0625 -21.609375 L 19.234375 0 L 15.421875 0 Z M 12.390625 -7.71875 L 9.796875 -14.28125 L 7.125 -7.71875 Z M 12.390625 -7.71875" transform="translate(205.866 194.625)"/></g></g></g><g fill="#1C2120"><g><g><path d="M 13.734375 -16.53125 C 11.953125 -17.457031 10.367188 -17.921875 8.984375 -17.921875 C 7.953125 -17.921875 7.132812 -17.691406 6.53125 -17.234375 C 5.9375 -16.785156 5.640625 -16.160156 5.640625 -15.359375 C 5.640625 -14.578125 6.015625 -13.925781 6.765625 -13.40625 C 7.515625 -12.882812 8.566406 -12.367188 9.921875 -11.859375 C 10.941406 -11.492188 11.816406 -11.078125 12.546875 -10.609375 C 13.285156 -10.148438 13.890625 -9.519531 14.359375 -8.71875 C 14.835938 -7.925781 15.078125 -6.921875 15.078125 -5.703125 C 15.078125 -4.597656 14.800781 -3.597656 14.25 -2.703125 C 13.695312 -1.816406 12.894531 -1.101562 11.84375 -0.5625 C 10.800781 -0.03125 9.570312 0.234375 8.15625 0.234375 C 6.894531 0.234375 5.65625 0.0390625 4.4375 -0.34375 C 3.226562 -0.738281 2.148438 -1.28125 1.203125 -1.96875 L 2.671875 -4.5625 C 3.378906 -4.03125 4.210938 -3.585938 5.171875 -3.234375 C 6.128906 -2.878906 7.019531 -2.703125 7.84375 -2.703125 C 8.84375 -2.703125 9.722656 -2.941406 10.484375 -3.421875 C 11.242188 -3.910156 11.625 -4.660156 11.625 -5.671875 C 11.625 -6.472656 11.304688 -7.140625 10.671875 -7.671875 C 10.035156 -8.203125 9.148438 -8.6875 8.015625 -9.125 C 6.828125 -9.5625 5.84375 -9.992188 5.0625 -10.421875 C 4.289062 -10.847656 3.625 -11.441406 3.0625 -12.203125 C 2.5 -12.972656 2.21875 -13.941406 2.21875 -15.109375 C 2.21875 -16.796875 2.789062 -18.15625 3.9375 -19.1875 C 5.09375 -20.226562 6.613281 -20.785156 8.5 -20.859375 C 9.863281 -20.859375 11.0625 -20.703125 12.09375 -20.390625 C 13.132812 -20.078125 14.097656 -19.632812 14.984375 -19.0625 Z M 13.734375 -16.53125" transform="translate(230.148 194.625)"/></g></g></g><g fill="#1C2120"><g><g><path d="M 6.1875 -20.75 L 6.1875 0 L 2.84375 0 L 2.84375 -20.75 Z M 6.1875 -20.75" transform="translate(251.096 194.625)"/></g></g></g><g fill="#1C2120"><g><g><path d="M 14.1875 0 L 9.515625 -7.203125 L 6.1875 -7.203125 L 6.1875 0 L 2.84375 0 L 2.84375 -20.75 L 8.6875 -20.75 C 11.007812 -20.75 12.867188 -20.160156 14.265625 -18.984375 C 15.660156 -17.804688 16.359375 -16.171875 16.359375 -14.078125 C 16.359375 -12.804688 16.085938 -11.625 15.546875 -10.53125 C 15.003906 -9.4375 14.15625 -8.597656 13 -8.015625 L 18.046875 0 Z M 6.1875 -10.40625 L 9.15625 -10.40625 C 10.476562 -10.40625 11.4375 -10.769531 12.03125 -11.5 C 12.632812 -12.226562 12.9375 -13.050781 12.9375 -13.96875 C 12.9375 -14.5 12.820312 -15.035156 12.59375 -15.578125 C 12.363281 -16.117188 11.972656 -16.582031 11.421875 -16.96875 C 10.878906 -17.363281 10.160156 -17.5625 9.265625 -17.5625 L 6.1875 -17.5625 Z M 6.1875 -10.40625" transform="translate(264.49 194.625)"/></g></g></g></svg>